<mxfile host="app.diagrams.net" modified="2020-08-07T07:40:08.007Z" agent="5.0 (Macintosh; Intel Mac OS X 10_14_6) AppleWebKit/537.36 (KHTML, like Gecko) Chrome/84.0.4147.105 Safari/537.36" etag="IqHJkC1xNPufuEkXlTRh" version="13.5.8" type="github" pages="3">
  <diagram id="cb1qfdT1z9DAyJUj70RS" name="Page-1">
    <mxGraphModel dx="946" dy="554" grid="1" gridSize="10" guides="1" tooltips="1" connect="1" arrows="1" fold="1" page="1" pageScale="1" pageWidth="827" pageHeight="1169" math="0" shadow="0">
      <root>
        <mxCell id="0" />
        <mxCell id="1" parent="0" />
        <mxCell id="89aP-tMdskJgXw0FRzMQ-3" value="" style="edgeStyle=orthogonalEdgeStyle;rounded=0;orthogonalLoop=1;jettySize=auto;html=1;" edge="1" parent="1" source="89aP-tMdskJgXw0FRzMQ-1" target="89aP-tMdskJgXw0FRzMQ-2">
          <mxGeometry relative="1" as="geometry" />
        </mxCell>
        <mxCell id="89aP-tMdskJgXw0FRzMQ-1" value="矢量数据" style="shape=parallelogram;perimeter=parallelogramPerimeter;whiteSpace=wrap;html=1;fixedSize=1;" vertex="1" parent="1">
          <mxGeometry x="30" y="240" width="120" height="60" as="geometry" />
        </mxCell>
        <mxCell id="89aP-tMdskJgXw0FRzMQ-5" value="" style="edgeStyle=orthogonalEdgeStyle;rounded=0;orthogonalLoop=1;jettySize=auto;html=1;" edge="1" parent="1" source="89aP-tMdskJgXw0FRzMQ-2" target="89aP-tMdskJgXw0FRzMQ-4">
          <mxGeometry relative="1" as="geometry" />
        </mxCell>
        <mxCell id="89aP-tMdskJgXw0FRzMQ-2" value="数据验证" style="whiteSpace=wrap;html=1;" vertex="1" parent="1">
          <mxGeometry x="200" y="240" width="120" height="60" as="geometry" />
        </mxCell>
        <mxCell id="89aP-tMdskJgXw0FRzMQ-7" value="" style="edgeStyle=orthogonalEdgeStyle;rounded=0;orthogonalLoop=1;jettySize=auto;html=1;" edge="1" parent="1" source="89aP-tMdskJgXw0FRzMQ-4" target="89aP-tMdskJgXw0FRzMQ-6">
          <mxGeometry relative="1" as="geometry" />
        </mxCell>
        <mxCell id="89aP-tMdskJgXw0FRzMQ-9" value="" style="edgeStyle=orthogonalEdgeStyle;rounded=0;orthogonalLoop=1;jettySize=auto;html=1;" edge="1" parent="1" source="89aP-tMdskJgXw0FRzMQ-4" target="89aP-tMdskJgXw0FRzMQ-8">
          <mxGeometry relative="1" as="geometry" />
        </mxCell>
        <mxCell id="89aP-tMdskJgXw0FRzMQ-11" value="" style="edgeStyle=orthogonalEdgeStyle;rounded=0;orthogonalLoop=1;jettySize=auto;html=1;" edge="1" parent="1" source="89aP-tMdskJgXw0FRzMQ-4" target="89aP-tMdskJgXw0FRzMQ-10">
          <mxGeometry relative="1" as="geometry" />
        </mxCell>
        <mxCell id="89aP-tMdskJgXw0FRzMQ-4" value="数据入库" style="whiteSpace=wrap;html=1;" vertex="1" parent="1">
          <mxGeometry x="400" y="240" width="120" height="60" as="geometry" />
        </mxCell>
        <mxCell id="89aP-tMdskJgXw0FRzMQ-6" value="文件库" style="shape=cylinder;whiteSpace=wrap;html=1;boundedLbl=1;backgroundOutline=1;" vertex="1" parent="1">
          <mxGeometry x="580" y="140" width="60" height="80" as="geometry" />
        </mxCell>
        <mxCell id="89aP-tMdskJgXw0FRzMQ-8" value="Postgis" style="shape=cylinder;whiteSpace=wrap;html=1;boundedLbl=1;backgroundOutline=1;" vertex="1" parent="1">
          <mxGeometry x="580" y="310" width="60" height="80" as="geometry" />
        </mxCell>
        <mxCell id="89aP-tMdskJgXw0FRzMQ-13" value="" style="edgeStyle=orthogonalEdgeStyle;rounded=0;orthogonalLoop=1;jettySize=auto;html=1;" edge="1" parent="1" source="89aP-tMdskJgXw0FRzMQ-10" target="89aP-tMdskJgXw0FRzMQ-12">
          <mxGeometry relative="1" as="geometry" />
        </mxCell>
        <mxCell id="89aP-tMdskJgXw0FRzMQ-10" value="元数据生产" style="whiteSpace=wrap;html=1;" vertex="1" parent="1">
          <mxGeometry x="400" y="380" width="120" height="60" as="geometry" />
        </mxCell>
        <mxCell id="89aP-tMdskJgXw0FRzMQ-15" value="" style="edgeStyle=orthogonalEdgeStyle;rounded=0;orthogonalLoop=1;jettySize=auto;html=1;" edge="1" parent="1" source="89aP-tMdskJgXw0FRzMQ-12" target="89aP-tMdskJgXw0FRzMQ-14">
          <mxGeometry relative="1" as="geometry" />
        </mxCell>
        <mxCell id="89aP-tMdskJgXw0FRzMQ-12" value="元数据" style="shape=cylinder;whiteSpace=wrap;html=1;boundedLbl=1;backgroundOutline=1;" vertex="1" parent="1">
          <mxGeometry x="430" y="510" width="60" height="80" as="geometry" />
        </mxCell>
        <mxCell id="89aP-tMdskJgXw0FRzMQ-14" value="元数据管理" style="whiteSpace=wrap;html=1;" vertex="1" parent="1">
          <mxGeometry x="540" y="520" width="120" height="60" as="geometry" />
        </mxCell>
      </root>
    </mxGraphModel>
  </diagram>
  <diagram id="eQtFJR6LBDCDlH7S3YZw" name="Page-2">
    <mxGraphModel dx="1901" dy="784" grid="1" gridSize="10" guides="1" tooltips="1" connect="1" arrows="1" fold="1" page="1" pageScale="1" pageWidth="827" pageHeight="1169" math="0" shadow="0">
      <root>
        <mxCell id="C2CGkRiJK3QxpDwFncpu-0" />
        <mxCell id="C2CGkRiJK3QxpDwFncpu-1" parent="C2CGkRiJK3QxpDwFncpu-0" />
        <mxCell id="C2CGkRiJK3QxpDwFncpu-4" value="" style="edgeStyle=orthogonalEdgeStyle;rounded=0;orthogonalLoop=1;jettySize=auto;html=1;" edge="1" parent="C2CGkRiJK3QxpDwFncpu-1" source="C2CGkRiJK3QxpDwFncpu-2" target="C2CGkRiJK3QxpDwFncpu-3">
          <mxGeometry relative="1" as="geometry" />
        </mxCell>
        <mxCell id="C2CGkRiJK3QxpDwFncpu-2" value="Shp" style="shape=parallelogram;perimeter=parallelogramPerimeter;whiteSpace=wrap;html=1;fixedSize=1;fillColor=#d5e8d4;strokeColor=#82b366;" vertex="1" parent="C2CGkRiJK3QxpDwFncpu-1">
          <mxGeometry x="330" y="70" width="120" height="60" as="geometry" />
        </mxCell>
        <mxCell id="C2CGkRiJK3QxpDwFncpu-6" value="" style="edgeStyle=orthogonalEdgeStyle;rounded=0;orthogonalLoop=1;jettySize=auto;html=1;" edge="1" parent="C2CGkRiJK3QxpDwFncpu-1" source="C2CGkRiJK3QxpDwFncpu-3" target="C2CGkRiJK3QxpDwFncpu-5">
          <mxGeometry relative="1" as="geometry" />
        </mxCell>
        <mxCell id="C2CGkRiJK3QxpDwFncpu-9" value="" style="edgeStyle=orthogonalEdgeStyle;rounded=0;orthogonalLoop=1;jettySize=auto;html=1;" edge="1" parent="C2CGkRiJK3QxpDwFncpu-1" source="C2CGkRiJK3QxpDwFncpu-3" target="C2CGkRiJK3QxpDwFncpu-7">
          <mxGeometry relative="1" as="geometry">
            <Array as="points">
              <mxPoint x="300" y="220" />
            </Array>
          </mxGeometry>
        </mxCell>
        <mxCell id="C2CGkRiJK3QxpDwFncpu-11" value="" style="edgeStyle=orthogonalEdgeStyle;rounded=0;orthogonalLoop=1;jettySize=auto;html=1;" edge="1" parent="C2CGkRiJK3QxpDwFncpu-1" source="C2CGkRiJK3QxpDwFncpu-3" target="C2CGkRiJK3QxpDwFncpu-10">
          <mxGeometry relative="1" as="geometry" />
        </mxCell>
        <mxCell id="C2CGkRiJK3QxpDwFncpu-12" style="edgeStyle=orthogonalEdgeStyle;rounded=0;orthogonalLoop=1;jettySize=auto;html=1;" edge="1" parent="C2CGkRiJK3QxpDwFncpu-1" source="C2CGkRiJK3QxpDwFncpu-3" target="C2CGkRiJK3QxpDwFncpu-13">
          <mxGeometry relative="1" as="geometry">
            <mxPoint x="680" y="300" as="targetPoint" />
          </mxGeometry>
        </mxCell>
        <mxCell id="C2CGkRiJK3QxpDwFncpu-3" value="PG" style="shape=cylinder;whiteSpace=wrap;html=1;boundedLbl=1;backgroundOutline=1;fillColor=#d5e8d4;strokeColor=#82b366;" vertex="1" parent="C2CGkRiJK3QxpDwFncpu-1">
          <mxGeometry x="360" y="180" width="60" height="80" as="geometry" />
        </mxCell>
        <mxCell id="C2CGkRiJK3QxpDwFncpu-14" style="edgeStyle=orthogonalEdgeStyle;rounded=0;orthogonalLoop=1;jettySize=auto;html=1;" edge="1" parent="C2CGkRiJK3QxpDwFncpu-1" source="C2CGkRiJK3QxpDwFncpu-5" target="C2CGkRiJK3QxpDwFncpu-15">
          <mxGeometry relative="1" as="geometry">
            <mxPoint x="370" y="490" as="targetPoint" />
            <Array as="points">
              <mxPoint x="130" y="430" />
              <mxPoint x="390" y="430" />
            </Array>
          </mxGeometry>
        </mxCell>
        <mxCell id="C2CGkRiJK3QxpDwFncpu-5" value="数据分层" style="whiteSpace=wrap;html=1;fillColor=#d5e8d4;strokeColor=#82b366;" vertex="1" parent="C2CGkRiJK3QxpDwFncpu-1">
          <mxGeometry x="70" y="300" width="120" height="60" as="geometry" />
        </mxCell>
        <mxCell id="C2CGkRiJK3QxpDwFncpu-16" style="edgeStyle=orthogonalEdgeStyle;rounded=0;orthogonalLoop=1;jettySize=auto;html=1;entryX=0.5;entryY=0;entryDx=0;entryDy=0;" edge="1" parent="C2CGkRiJK3QxpDwFncpu-1" source="C2CGkRiJK3QxpDwFncpu-7" target="C2CGkRiJK3QxpDwFncpu-15">
          <mxGeometry relative="1" as="geometry">
            <Array as="points">
              <mxPoint x="300" y="430" />
              <mxPoint x="390" y="430" />
            </Array>
          </mxGeometry>
        </mxCell>
        <mxCell id="C2CGkRiJK3QxpDwFncpu-7" value="分省清洗" style="whiteSpace=wrap;html=1;fillColor=#d5e8d4;strokeColor=#82b366;" vertex="1" parent="C2CGkRiJK3QxpDwFncpu-1">
          <mxGeometry x="240" y="300" width="120" height="60" as="geometry" />
        </mxCell>
        <mxCell id="C2CGkRiJK3QxpDwFncpu-17" style="edgeStyle=orthogonalEdgeStyle;rounded=0;orthogonalLoop=1;jettySize=auto;html=1;entryX=0.5;entryY=0;entryDx=0;entryDy=0;" edge="1" parent="C2CGkRiJK3QxpDwFncpu-1" source="C2CGkRiJK3QxpDwFncpu-10" target="C2CGkRiJK3QxpDwFncpu-15">
          <mxGeometry relative="1" as="geometry">
            <Array as="points">
              <mxPoint x="490" y="430" />
              <mxPoint x="390" y="430" />
            </Array>
          </mxGeometry>
        </mxCell>
        <mxCell id="C2CGkRiJK3QxpDwFncpu-10" value="属性关联" style="whiteSpace=wrap;html=1;fillColor=#d5e8d4;strokeColor=#82b366;" vertex="1" parent="C2CGkRiJK3QxpDwFncpu-1">
          <mxGeometry x="430" y="300" width="120" height="60" as="geometry" />
        </mxCell>
        <mxCell id="C2CGkRiJK3QxpDwFncpu-18" style="edgeStyle=orthogonalEdgeStyle;rounded=0;orthogonalLoop=1;jettySize=auto;html=1;entryX=0.5;entryY=0;entryDx=0;entryDy=0;" edge="1" parent="C2CGkRiJK3QxpDwFncpu-1" source="C2CGkRiJK3QxpDwFncpu-13" target="C2CGkRiJK3QxpDwFncpu-15">
          <mxGeometry relative="1" as="geometry">
            <Array as="points">
              <mxPoint x="680" y="430" />
              <mxPoint x="390" y="430" />
            </Array>
          </mxGeometry>
        </mxCell>
        <mxCell id="C2CGkRiJK3QxpDwFncpu-13" value="坐标转换" style="rounded=0;whiteSpace=wrap;html=1;fillColor=#d5e8d4;strokeColor=#82b366;" vertex="1" parent="C2CGkRiJK3QxpDwFncpu-1">
          <mxGeometry x="620" y="300" width="120" height="60" as="geometry" />
        </mxCell>
        <mxCell id="C2CGkRiJK3QxpDwFncpu-19" style="edgeStyle=orthogonalEdgeStyle;rounded=0;orthogonalLoop=1;jettySize=auto;html=1;" edge="1" parent="C2CGkRiJK3QxpDwFncpu-1" source="C2CGkRiJK3QxpDwFncpu-15" target="C2CGkRiJK3QxpDwFncpu-21">
          <mxGeometry relative="1" as="geometry">
            <mxPoint x="190" y="660" as="targetPoint" />
          </mxGeometry>
        </mxCell>
        <mxCell id="C2CGkRiJK3QxpDwFncpu-20" style="edgeStyle=orthogonalEdgeStyle;rounded=0;orthogonalLoop=1;jettySize=auto;html=1;" edge="1" parent="C2CGkRiJK3QxpDwFncpu-1" source="C2CGkRiJK3QxpDwFncpu-15" target="C2CGkRiJK3QxpDwFncpu-38">
          <mxGeometry relative="1" as="geometry">
            <mxPoint x="600" y="640" as="targetPoint" />
          </mxGeometry>
        </mxCell>
        <mxCell id="C2CGkRiJK3QxpDwFncpu-34" style="edgeStyle=orthogonalEdgeStyle;rounded=0;orthogonalLoop=1;jettySize=auto;html=1;entryX=0.5;entryY=0;entryDx=0;entryDy=0;" edge="1" parent="C2CGkRiJK3QxpDwFncpu-1" source="C2CGkRiJK3QxpDwFncpu-15" target="C2CGkRiJK3QxpDwFncpu-24">
          <mxGeometry relative="1" as="geometry" />
        </mxCell>
        <mxCell id="C2CGkRiJK3QxpDwFncpu-39" style="edgeStyle=orthogonalEdgeStyle;rounded=0;orthogonalLoop=1;jettySize=auto;html=1;" edge="1" parent="C2CGkRiJK3QxpDwFncpu-1" source="C2CGkRiJK3QxpDwFncpu-15" target="C2CGkRiJK3QxpDwFncpu-40">
          <mxGeometry relative="1" as="geometry">
            <mxPoint x="690" y="640" as="targetPoint" />
          </mxGeometry>
        </mxCell>
        <mxCell id="C2CGkRiJK3QxpDwFncpu-41" style="edgeStyle=orthogonalEdgeStyle;rounded=0;orthogonalLoop=1;jettySize=auto;html=1;" edge="1" parent="C2CGkRiJK3QxpDwFncpu-1" source="C2CGkRiJK3QxpDwFncpu-15" target="C2CGkRiJK3QxpDwFncpu-42">
          <mxGeometry relative="1" as="geometry">
            <mxPoint x="800" y="640" as="targetPoint" />
          </mxGeometry>
        </mxCell>
        <mxCell id="C2CGkRiJK3QxpDwFncpu-15" value="PG" style="shape=cylinder;whiteSpace=wrap;html=1;boundedLbl=1;backgroundOutline=1;fillColor=#d5e8d4;strokeColor=#82b366;" vertex="1" parent="C2CGkRiJK3QxpDwFncpu-1">
          <mxGeometry x="360" y="470" width="60" height="80" as="geometry" />
        </mxCell>
        <mxCell id="C2CGkRiJK3QxpDwFncpu-23" value="" style="edgeStyle=orthogonalEdgeStyle;rounded=0;orthogonalLoop=1;jettySize=auto;html=1;exitX=0;exitY=0.5;exitDx=0;exitDy=0;" edge="1" parent="C2CGkRiJK3QxpDwFncpu-1" source="C2CGkRiJK3QxpDwFncpu-15" target="C2CGkRiJK3QxpDwFncpu-22">
          <mxGeometry relative="1" as="geometry">
            <Array as="points">
              <mxPoint x="210" y="510" />
            </Array>
          </mxGeometry>
        </mxCell>
        <mxCell id="C2CGkRiJK3QxpDwFncpu-35" style="edgeStyle=orthogonalEdgeStyle;rounded=0;orthogonalLoop=1;jettySize=auto;html=1;entryX=0.5;entryY=0;entryDx=0;entryDy=0;" edge="1" parent="C2CGkRiJK3QxpDwFncpu-1" source="C2CGkRiJK3QxpDwFncpu-21" target="C2CGkRiJK3QxpDwFncpu-26">
          <mxGeometry relative="1" as="geometry">
            <Array as="points">
              <mxPoint x="80" y="720" />
              <mxPoint x="220" y="720" />
            </Array>
          </mxGeometry>
        </mxCell>
        <mxCell id="C2CGkRiJK3QxpDwFncpu-21" value="数据抽稀（行政区划数据查询优化）" style="rounded=0;whiteSpace=wrap;html=1;fillColor=#dae8fc;strokeColor=#6c8ebf;" vertex="1" parent="C2CGkRiJK3QxpDwFncpu-1">
          <mxGeometry x="20" y="630" width="120" height="60" as="geometry" />
        </mxCell>
        <mxCell id="C2CGkRiJK3QxpDwFncpu-36" style="edgeStyle=orthogonalEdgeStyle;rounded=0;orthogonalLoop=1;jettySize=auto;html=1;entryX=0.5;entryY=0;entryDx=0;entryDy=0;" edge="1" parent="C2CGkRiJK3QxpDwFncpu-1" source="C2CGkRiJK3QxpDwFncpu-22" target="C2CGkRiJK3QxpDwFncpu-26">
          <mxGeometry relative="1" as="geometry" />
        </mxCell>
        <mxCell id="C2CGkRiJK3QxpDwFncpu-22" value="路口清洗" style="whiteSpace=wrap;html=1;rounded=0;fillColor=#dae8fc;strokeColor=#6c8ebf;" vertex="1" parent="C2CGkRiJK3QxpDwFncpu-1">
          <mxGeometry x="160" y="630" width="120" height="60" as="geometry" />
        </mxCell>
        <mxCell id="C2CGkRiJK3QxpDwFncpu-37" style="edgeStyle=orthogonalEdgeStyle;rounded=0;orthogonalLoop=1;jettySize=auto;html=1;entryX=0.5;entryY=0;entryDx=0;entryDy=0;" edge="1" parent="C2CGkRiJK3QxpDwFncpu-1" source="C2CGkRiJK3QxpDwFncpu-24" target="C2CGkRiJK3QxpDwFncpu-26">
          <mxGeometry relative="1" as="geometry">
            <Array as="points">
              <mxPoint x="354" y="720" />
              <mxPoint x="220" y="720" />
            </Array>
          </mxGeometry>
        </mxCell>
        <mxCell id="C2CGkRiJK3QxpDwFncpu-24" value="POI分类梳理" style="whiteSpace=wrap;html=1;rounded=0;fillColor=#dae8fc;strokeColor=#6c8ebf;" vertex="1" parent="C2CGkRiJK3QxpDwFncpu-1">
          <mxGeometry x="294" y="630" width="120" height="60" as="geometry" />
        </mxCell>
        <mxCell id="C2CGkRiJK3QxpDwFncpu-29" value="" style="edgeStyle=orthogonalEdgeStyle;rounded=0;orthogonalLoop=1;jettySize=auto;html=1;" edge="1" parent="C2CGkRiJK3QxpDwFncpu-1" source="C2CGkRiJK3QxpDwFncpu-26" target="C2CGkRiJK3QxpDwFncpu-28">
          <mxGeometry relative="1" as="geometry" />
        </mxCell>
        <mxCell id="C2CGkRiJK3QxpDwFncpu-26" value="进入ES索引" style="whiteSpace=wrap;html=1;rounded=0;fillColor=#dae8fc;strokeColor=#6c8ebf;" vertex="1" parent="C2CGkRiJK3QxpDwFncpu-1">
          <mxGeometry x="160" y="740" width="120" height="60" as="geometry" />
        </mxCell>
        <mxCell id="C2CGkRiJK3QxpDwFncpu-31" value="" style="edgeStyle=orthogonalEdgeStyle;rounded=0;orthogonalLoop=1;jettySize=auto;html=1;" edge="1" parent="C2CGkRiJK3QxpDwFncpu-1" source="C2CGkRiJK3QxpDwFncpu-28" target="C2CGkRiJK3QxpDwFncpu-30">
          <mxGeometry relative="1" as="geometry" />
        </mxCell>
        <mxCell id="C2CGkRiJK3QxpDwFncpu-28" value="拼音，汉字索引清洗" style="whiteSpace=wrap;html=1;rounded=0;fillColor=#dae8fc;strokeColor=#6c8ebf;" vertex="1" parent="C2CGkRiJK3QxpDwFncpu-1">
          <mxGeometry x="160" y="830" width="120" height="60" as="geometry" />
        </mxCell>
        <mxCell id="C2CGkRiJK3QxpDwFncpu-33" value="" style="edgeStyle=orthogonalEdgeStyle;rounded=0;orthogonalLoop=1;jettySize=auto;html=1;" edge="1" parent="C2CGkRiJK3QxpDwFncpu-1" source="C2CGkRiJK3QxpDwFncpu-30" target="C2CGkRiJK3QxpDwFncpu-32">
          <mxGeometry relative="1" as="geometry" />
        </mxCell>
        <mxCell id="C2CGkRiJK3QxpDwFncpu-30" value="MVT,网格聚合清洗" style="whiteSpace=wrap;html=1;rounded=0;fillColor=#dae8fc;strokeColor=#6c8ebf;" vertex="1" parent="C2CGkRiJK3QxpDwFncpu-1">
          <mxGeometry x="160" y="940" width="120" height="60" as="geometry" />
        </mxCell>
        <mxCell id="C2CGkRiJK3QxpDwFncpu-32" value="按照名称行政区划合并" style="whiteSpace=wrap;html=1;rounded=0;fillColor=#dae8fc;strokeColor=#6c8ebf;" vertex="1" parent="C2CGkRiJK3QxpDwFncpu-1">
          <mxGeometry x="160" y="1040" width="120" height="60" as="geometry" />
        </mxCell>
        <mxCell id="C2CGkRiJK3QxpDwFncpu-44" style="edgeStyle=orthogonalEdgeStyle;rounded=0;orthogonalLoop=1;jettySize=auto;html=1;" edge="1" parent="C2CGkRiJK3QxpDwFncpu-1" source="C2CGkRiJK3QxpDwFncpu-38" target="C2CGkRiJK3QxpDwFncpu-43">
          <mxGeometry relative="1" as="geometry">
            <Array as="points">
              <mxPoint x="540" y="740" />
              <mxPoint x="690" y="740" />
            </Array>
          </mxGeometry>
        </mxCell>
        <mxCell id="C2CGkRiJK3QxpDwFncpu-38" value="抽稀（展示优化）" style="rounded=0;whiteSpace=wrap;html=1;fillColor=#fff2cc;strokeColor=#d6b656;" vertex="1" parent="C2CGkRiJK3QxpDwFncpu-1">
          <mxGeometry x="480" y="630" width="120" height="60" as="geometry" />
        </mxCell>
        <mxCell id="C2CGkRiJK3QxpDwFncpu-45" style="edgeStyle=orthogonalEdgeStyle;rounded=0;orthogonalLoop=1;jettySize=auto;html=1;entryX=0.5;entryY=-0.012;entryDx=0;entryDy=0;entryPerimeter=0;" edge="1" parent="C2CGkRiJK3QxpDwFncpu-1" source="C2CGkRiJK3QxpDwFncpu-40" target="C2CGkRiJK3QxpDwFncpu-43">
          <mxGeometry relative="1" as="geometry" />
        </mxCell>
        <mxCell id="C2CGkRiJK3QxpDwFncpu-40" value="道路合并（分类合并）" style="rounded=0;whiteSpace=wrap;html=1;fillColor=#fff2cc;strokeColor=#d6b656;" vertex="1" parent="C2CGkRiJK3QxpDwFncpu-1">
          <mxGeometry x="630" y="630" width="120" height="60" as="geometry" />
        </mxCell>
        <mxCell id="C2CGkRiJK3QxpDwFncpu-46" style="edgeStyle=orthogonalEdgeStyle;rounded=0;orthogonalLoop=1;jettySize=auto;html=1;" edge="1" parent="C2CGkRiJK3QxpDwFncpu-1" source="C2CGkRiJK3QxpDwFncpu-42" target="C2CGkRiJK3QxpDwFncpu-43">
          <mxGeometry relative="1" as="geometry">
            <Array as="points">
              <mxPoint x="830" y="740" />
              <mxPoint x="690" y="740" />
            </Array>
          </mxGeometry>
        </mxCell>
        <mxCell id="C2CGkRiJK3QxpDwFncpu-42" value="道路标注提取" style="rounded=0;whiteSpace=wrap;html=1;fillColor=#fff2cc;strokeColor=#d6b656;" vertex="1" parent="C2CGkRiJK3QxpDwFncpu-1">
          <mxGeometry x="770" y="630" width="120" height="60" as="geometry" />
        </mxCell>
        <mxCell id="C2CGkRiJK3QxpDwFncpu-48" value="" style="edgeStyle=orthogonalEdgeStyle;rounded=0;orthogonalLoop=1;jettySize=auto;html=1;" edge="1" parent="C2CGkRiJK3QxpDwFncpu-1" source="C2CGkRiJK3QxpDwFncpu-43" target="C2CGkRiJK3QxpDwFncpu-47">
          <mxGeometry relative="1" as="geometry" />
        </mxCell>
        <mxCell id="C2CGkRiJK3QxpDwFncpu-43" value="PG" style="shape=cylinder2;whiteSpace=wrap;html=1;boundedLbl=1;backgroundOutline=1;size=15;fillColor=#fff2cc;strokeColor=#d6b656;" vertex="1" parent="C2CGkRiJK3QxpDwFncpu-1">
          <mxGeometry x="660" y="760" width="60" height="80" as="geometry" />
        </mxCell>
        <mxCell id="C2CGkRiJK3QxpDwFncpu-47" value="转geoJSON" style="whiteSpace=wrap;html=1;strokeColor=#d6b656;fillColor=#fff2cc;" vertex="1" parent="C2CGkRiJK3QxpDwFncpu-1">
          <mxGeometry x="630" y="900" width="120" height="60" as="geometry" />
        </mxCell>
      </root>
    </mxGraphModel>
  </diagram>
  <diagram id="hX8wSUFjO6jMxx8iOpwG" name="Page-3">
    <mxGraphModel dx="946" dy="588" grid="1" gridSize="10" guides="1" tooltips="1" connect="1" arrows="1" fold="1" page="1" pageScale="1" pageWidth="827" pageHeight="1169" math="0" shadow="0">
      <root>
        <mxCell id="DrsSwI6RCtiQRsBD5o5D-0" />
        <mxCell id="DrsSwI6RCtiQRsBD5o5D-1" parent="DrsSwI6RCtiQRsBD5o5D-0" />
        <mxCell id="DrsSwI6RCtiQRsBD5o5D-4" value="" style="edgeStyle=orthogonalEdgeStyle;rounded=0;orthogonalLoop=1;jettySize=auto;html=1;exitX=1;exitY=0.5;exitDx=0;exitDy=0;entryX=0;entryY=0.5;entryDx=0;entryDy=0;" edge="1" parent="DrsSwI6RCtiQRsBD5o5D-1" source="DrsSwI6RCtiQRsBD5o5D-2" target="DrsSwI6RCtiQRsBD5o5D-8">
          <mxGeometry relative="1" as="geometry" />
        </mxCell>
        <mxCell id="DrsSwI6RCtiQRsBD5o5D-2" value="样式配置" style="rounded=0;whiteSpace=wrap;html=1;" vertex="1" parent="DrsSwI6RCtiQRsBD5o5D-1">
          <mxGeometry x="80" y="60" width="120" height="60" as="geometry" />
        </mxCell>
        <mxCell id="DrsSwI6RCtiQRsBD5o5D-10" style="edgeStyle=orthogonalEdgeStyle;rounded=0;orthogonalLoop=1;jettySize=auto;html=1;entryX=0.5;entryY=0;entryDx=0;entryDy=0;" edge="1" parent="DrsSwI6RCtiQRsBD5o5D-1" source="DrsSwI6RCtiQRsBD5o5D-3" target="DrsSwI6RCtiQRsBD5o5D-9">
          <mxGeometry relative="1" as="geometry" />
        </mxCell>
        <mxCell id="DrsSwI6RCtiQRsBD5o5D-3" value="自动样式转换服务（优化中）" style="whiteSpace=wrap;html=1;rounded=0;" vertex="1" parent="DrsSwI6RCtiQRsBD5o5D-1">
          <mxGeometry x="250" y="160" width="120" height="60" as="geometry" />
        </mxCell>
        <mxCell id="DrsSwI6RCtiQRsBD5o5D-6" style="edgeStyle=orthogonalEdgeStyle;rounded=0;orthogonalLoop=1;jettySize=auto;html=1;exitX=0.5;exitY=1;exitDx=0;exitDy=0;" edge="1" parent="DrsSwI6RCtiQRsBD5o5D-1" source="DrsSwI6RCtiQRsBD5o5D-8" target="DrsSwI6RCtiQRsBD5o5D-3">
          <mxGeometry relative="1" as="geometry">
            <mxPoint x="320" y="120" as="sourcePoint" />
          </mxGeometry>
        </mxCell>
        <mxCell id="DrsSwI6RCtiQRsBD5o5D-8" value="&lt;span&gt;矢量样式（style.json）&lt;/span&gt;" style="shape=parallelogram;perimeter=parallelogramPerimeter;whiteSpace=wrap;html=1;fixedSize=1;" vertex="1" parent="DrsSwI6RCtiQRsBD5o5D-1">
          <mxGeometry x="250" y="60" width="120" height="60" as="geometry" />
        </mxCell>
        <mxCell id="DrsSwI6RCtiQRsBD5o5D-9" value="删格样式（*.sld）" style="shape=parallelogram;perimeter=parallelogramPerimeter;whiteSpace=wrap;html=1;fixedSize=1;" vertex="1" parent="DrsSwI6RCtiQRsBD5o5D-1">
          <mxGeometry x="250" y="260" width="120" height="60" as="geometry" />
        </mxCell>
        <mxCell id="DrsSwI6RCtiQRsBD5o5D-14" value="" style="edgeStyle=orthogonalEdgeStyle;rounded=0;orthogonalLoop=1;jettySize=auto;html=1;exitX=0;exitY=0.5;exitDx=0;exitDy=0;" edge="1" parent="DrsSwI6RCtiQRsBD5o5D-1" source="DrsSwI6RCtiQRsBD5o5D-12" target="DrsSwI6RCtiQRsBD5o5D-13">
          <mxGeometry relative="1" as="geometry">
            <Array as="points">
              <mxPoint x="810" y="190" />
              <mxPoint x="810" y="190" />
            </Array>
          </mxGeometry>
        </mxCell>
        <mxCell id="DrsSwI6RCtiQRsBD5o5D-12" value="&lt;span&gt;geoJSON文件&lt;/span&gt;" style="shape=parallelogram;perimeter=parallelogramPerimeter;whiteSpace=wrap;html=1;fixedSize=1;" vertex="1" parent="DrsSwI6RCtiQRsBD5o5D-1">
          <mxGeometry x="800" y="160" width="120" height="60" as="geometry" />
        </mxCell>
        <mxCell id="DrsSwI6RCtiQRsBD5o5D-16" value="" style="edgeStyle=orthogonalEdgeStyle;rounded=0;orthogonalLoop=1;jettySize=auto;html=1;entryX=0.5;entryY=1;entryDx=0;entryDy=0;" edge="1" parent="DrsSwI6RCtiQRsBD5o5D-1" source="DrsSwI6RCtiQRsBD5o5D-13" target="DrsSwI6RCtiQRsBD5o5D-21">
          <mxGeometry relative="1" as="geometry">
            <mxPoint x="490" y="110" as="targetPoint" />
          </mxGeometry>
        </mxCell>
        <mxCell id="DrsSwI6RCtiQRsBD5o5D-30" value="矢量" style="edgeLabel;html=1;align=center;verticalAlign=middle;resizable=0;points=[];" vertex="1" connectable="0" parent="DrsSwI6RCtiQRsBD5o5D-16">
          <mxGeometry x="0.7789" y="-1" relative="1" as="geometry">
            <mxPoint x="-1" y="19" as="offset" />
          </mxGeometry>
        </mxCell>
        <mxCell id="DrsSwI6RCtiQRsBD5o5D-17" style="edgeStyle=orthogonalEdgeStyle;rounded=0;orthogonalLoop=1;jettySize=auto;html=1;entryX=0.5;entryY=0;entryDx=0;entryDy=0;" edge="1" parent="DrsSwI6RCtiQRsBD5o5D-1" source="DrsSwI6RCtiQRsBD5o5D-13" target="DrsSwI6RCtiQRsBD5o5D-20">
          <mxGeometry relative="1" as="geometry">
            <mxPoint x="490" y="270" as="targetPoint" />
            <Array as="points">
              <mxPoint x="490" y="190" />
            </Array>
          </mxGeometry>
        </mxCell>
        <mxCell id="DrsSwI6RCtiQRsBD5o5D-29" value="删格" style="edgeLabel;html=1;align=center;verticalAlign=middle;resizable=0;points=[];" vertex="1" connectable="0" parent="DrsSwI6RCtiQRsBD5o5D-17">
          <mxGeometry x="0.2222" y="20" relative="1" as="geometry">
            <mxPoint x="-22" y="20" as="offset" />
          </mxGeometry>
        </mxCell>
        <mxCell id="DrsSwI6RCtiQRsBD5o5D-13" value="数据清洗服务（优化中）" style="whiteSpace=wrap;html=1;" vertex="1" parent="DrsSwI6RCtiQRsBD5o5D-1">
          <mxGeometry x="600" y="160" width="120" height="60" as="geometry" />
        </mxCell>
        <mxCell id="DrsSwI6RCtiQRsBD5o5D-22" style="edgeStyle=orthogonalEdgeStyle;rounded=0;orthogonalLoop=1;jettySize=auto;html=1;entryX=0.392;entryY=1;entryDx=0;entryDy=0;entryPerimeter=0;" edge="1" parent="DrsSwI6RCtiQRsBD5o5D-1" source="DrsSwI6RCtiQRsBD5o5D-19" target="DrsSwI6RCtiQRsBD5o5D-20">
          <mxGeometry relative="1" as="geometry" />
        </mxCell>
        <mxCell id="DrsSwI6RCtiQRsBD5o5D-24" value="切割" style="edgeLabel;html=1;align=center;verticalAlign=middle;resizable=0;points=[];" vertex="1" connectable="0" parent="DrsSwI6RCtiQRsBD5o5D-22">
          <mxGeometry x="0.2925" y="-2" relative="1" as="geometry">
            <mxPoint as="offset" />
          </mxGeometry>
        </mxCell>
        <mxCell id="DrsSwI6RCtiQRsBD5o5D-23" style="edgeStyle=orthogonalEdgeStyle;rounded=0;orthogonalLoop=1;jettySize=auto;html=1;entryX=0.408;entryY=1;entryDx=0;entryDy=0;entryPerimeter=0;" edge="1" parent="DrsSwI6RCtiQRsBD5o5D-1" source="DrsSwI6RCtiQRsBD5o5D-19" target="DrsSwI6RCtiQRsBD5o5D-9">
          <mxGeometry relative="1" as="geometry" />
        </mxCell>
        <mxCell id="DrsSwI6RCtiQRsBD5o5D-25" value="读取" style="edgeLabel;html=1;align=center;verticalAlign=middle;resizable=0;points=[];" vertex="1" connectable="0" parent="DrsSwI6RCtiQRsBD5o5D-23">
          <mxGeometry x="0.2318" y="-3" relative="1" as="geometry">
            <mxPoint as="offset" />
          </mxGeometry>
        </mxCell>
        <mxCell id="DrsSwI6RCtiQRsBD5o5D-27" value="" style="edgeStyle=orthogonalEdgeStyle;rounded=0;orthogonalLoop=1;jettySize=auto;html=1;" edge="1" parent="DrsSwI6RCtiQRsBD5o5D-1" source="DrsSwI6RCtiQRsBD5o5D-19">
          <mxGeometry relative="1" as="geometry">
            <mxPoint x="240" y="410" as="targetPoint" />
          </mxGeometry>
        </mxCell>
        <mxCell id="DrsSwI6RCtiQRsBD5o5D-19" value="spark集群（优化中）" style="rounded=1;whiteSpace=wrap;html=1;" vertex="1" parent="DrsSwI6RCtiQRsBD5o5D-1">
          <mxGeometry x="330" y="380" width="120" height="60" as="geometry" />
        </mxCell>
        <mxCell id="DrsSwI6RCtiQRsBD5o5D-20" value="生产Shp文件" style="shape=parallelogram;perimeter=parallelogramPerimeter;whiteSpace=wrap;html=1;fixedSize=1;" vertex="1" parent="DrsSwI6RCtiQRsBD5o5D-1">
          <mxGeometry x="430" y="260" width="120" height="60" as="geometry" />
        </mxCell>
        <mxCell id="DrsSwI6RCtiQRsBD5o5D-21" value="&lt;span&gt;切片生成mbtiles&lt;/span&gt;" style="shape=parallelogram;perimeter=parallelogramPerimeter;whiteSpace=wrap;html=1;fixedSize=1;" vertex="1" parent="DrsSwI6RCtiQRsBD5o5D-1">
          <mxGeometry x="430" y="60" width="120" height="60" as="geometry" />
        </mxCell>
        <mxCell id="DrsSwI6RCtiQRsBD5o5D-28" value="结果切片" style="shape=parallelogram;perimeter=parallelogramPerimeter;whiteSpace=wrap;html=1;fixedSize=1;" vertex="1" parent="DrsSwI6RCtiQRsBD5o5D-1">
          <mxGeometry x="130" y="380" width="120" height="60" as="geometry" />
        </mxCell>
      </root>
    </mxGraphModel>
  </diagram>
</mxfile>
